<?xml version="1.0" encoding="UTF-8"?>
<svg width="42px" height="21px" viewBox="0 0 42 21" version="1.1" xmlns="http://www.w3.org/2000/svg" xmlns:xlink="http://www.w3.org/1999/xlink">
    <!-- Generator: Sketch 52.5 (67469) - http://www.bohemiancoding.com/sketch -->
    <title>chip500000</title>
    <desc>Created with Sketch.</desc>
    <defs>
        <filter x="-18.8%" y="-36.1%" width="137.5%" height="172.2%" filterUnits="objectBoundingBox" id="filter-1">
            <feOffset dx="0" dy="2" in="SourceAlpha" result="shadowOffsetOuter1"></feOffset>
            <feGaussianBlur stdDeviation="0.5" in="shadowOffsetOuter1" result="shadowBlurOuter1"></feGaussianBlur>
            <feColorMatrix values="0 0 0 0 0   0 0 0 0 0   0 0 0 0 0  0 0 0 0.748839447 0" type="matrix" in="shadowBlurOuter1" result="shadowMatrixOuter1"></feColorMatrix>
            <feMerge>
                <feMergeNode in="shadowMatrixOuter1"></feMergeNode>
                <feMergeNode in="SourceGraphic"></feMergeNode>
            </feMerge>
        </filter>
        <linearGradient x1="0%" y1="50%" x2="104.921875%" y2="50%" id="linearGradient-2">
            <stop stop-color="#3023AE" offset="0%"></stop>
            <stop stop-color="#3F0E47" offset="100%"></stop>
        </linearGradient>
        <path d="M2.67564391,3.5 C6.13373811,1.4076952 12.5971764,0 20,0 C27.4028236,0 33.8662619,1.4076952 37.3243561,3.5 L40,3.5 L40,7 C40,10.8659932 31.045695,14 20,14 C8.954305,14 0,10.8659932 0,7 L0,3.5 L2.67564391,3.5 Z" id="path-3"></path>
        <path d="M0.202539596,6 C1.58891005,9.39229414 9.92436597,12 20,12 C30.075634,12 38.4110899,9.39229414 39.7974604,6 C39.9309373,6.32660298 40,6.66047866 40,7 C40,10.8659932 31.045695,14 20,14 C8.954305,14 0,10.8659932 0,7 C0,6.66047866 0.0690627476,6.32660298 0.202539596,6 Z" id="path-5"></path>
        <filter x="0.0%" y="0.0%" width="100.0%" height="100.0%" filterUnits="objectBoundingBox" id="filter-6">
            <feGaussianBlur stdDeviation="0" in="SourceGraphic"></feGaussianBlur>
        </filter>
        <linearGradient x1="1329.54712%" y1="29.171317%" x2="-154.119873%" y2="29.171317%" id="linearGradient-8">
            <stop stop-color="#FFFEFD" offset="0%"></stop>
            <stop stop-color="#B89867" offset="100%"></stop>
        </linearGradient>
        <ellipse id="path-9" cx="20" cy="7" rx="20" ry="7"></ellipse>
        <filter x="-5.0%" y="-7.1%" width="110.0%" height="128.6%" filterUnits="objectBoundingBox" id="filter-11">
            <feOffset dx="0" dy="1" in="SourceAlpha" result="shadowOffsetOuter1"></feOffset>
            <feGaussianBlur stdDeviation="0.5" in="shadowOffsetOuter1" result="shadowBlurOuter1"></feGaussianBlur>
            <feColorMatrix values="0 0 0 0 1   0 0 0 0 1   0 0 0 0 1  0 0 0 0.103459013 0" type="matrix" in="shadowBlurOuter1"></feColorMatrix>
        </filter>
        <ellipse id="path-12" cx="20" cy="7" rx="20" ry="7"></ellipse>
        <linearGradient x1="100%" y1="50%" x2="-2.22044605e-14%" y2="50%" id="linearGradient-14">
            <stop stop-color="#B89867" offset="0%"></stop>
            <stop stop-color="#FAF1D1" offset="49.5440674%"></stop>
            <stop stop-color="#B89867" offset="100%"></stop>
        </linearGradient>
        <ellipse id="path-15" cx="17.5" cy="6" rx="17.5" ry="6"></ellipse>
        <linearGradient x1="0%" y1="0%" x2="101.999998%" y2="100.999999%" id="linearGradient-17">
            <stop stop-color="#351472" offset="0%"></stop>
            <stop stop-color="#681676" offset="100%"></stop>
        </linearGradient>
        <path d="M16,11.1 C24.836556,11.1 32,8.81665222 32,6 C32,3.18334778 24.836556,0.9 16,0.9 C7.163444,0.9 0,3.18334778 0,6 C0,8.81665222 7.163444,11.1 16,11.1 Z" id="path-18"></path>
        <filter x="-1.6%" y="-4.9%" width="103.1%" height="109.8%" filterUnits="objectBoundingBox" id="filter-19">
            <feGaussianBlur stdDeviation="0.5" in="SourceAlpha" result="shadowBlurInner1"></feGaussianBlur>
            <feOffset dx="0" dy="0" in="shadowBlurInner1" result="shadowOffsetInner1"></feOffset>
            <feComposite in="shadowOffsetInner1" in2="SourceAlpha" operator="arithmetic" k2="-1" k3="1" result="shadowInnerInner1"></feComposite>
            <feColorMatrix values="0 0 0 0 0   0 0 0 0 0   0 0 0 0 0  0 0 0 0.5 0" type="matrix" in="shadowInnerInner1"></feColorMatrix>
        </filter>
        <ellipse id="path-20" cx="20" cy="7" rx="20" ry="7"></ellipse>
        <linearGradient x1="4.43559126%" y1="50%" x2="94.5989435%" y2="39.0084403%" id="linearGradient-22">
            <stop stop-color="#3023AE" offset="0%"></stop>
            <stop stop-color="#C86DD7" offset="100%"></stop>
        </linearGradient>
    </defs>
    <g id="Symbols" stroke="none" stroke-width="1" fill="none" fill-rule="evenodd">
        <g id="04-bg-/-chips-/-ontable-/-500000" transform="translate(1.000000, 0.000000)">
            <g id="chip500000" filter="url(#filter-1)">
                <g id="body" transform="translate(0.000000, 4.000000)">
                    <g id="Group-5">
                        <mask id="mask-4" fill="white">
                            <use xlink:href="#path-3"></use>
                        </mask>
                        <use id="color" fill="url(#linearGradient-2)" xlink:href="#path-3"></use>
                        <mask id="mask-7" fill="white">
                            <use xlink:href="#path-5"></use>
                        </mask>
                        <use id="Combined-Shape" fill="#000000" opacity="0.247056159" filter="url(#filter-6)" xlink:href="#path-5"></use>
                        <g mask="url(#mask-7)" fill="url(#linearGradient-8)">
                            <g transform="translate(0.000000, 4.666667)">
                                <polygon id="Rectangle-2" points="4 2.33333333 6.66666667 2.33333333 6.66666667 8.16666667 4 8.16666667"></polygon>
                                <polygon id="Rectangle-2-Copy" points="0.666666667 0 3.33333333 0 3.33333333 6.41011556 0.666666667 5.83333333"></polygon>
                            </g>
                        </g>
                        <g id="Group-5-Copy" mask="url(#mask-7)" fill="url(#linearGradient-8)">
                            <g transform="translate(36.500000, 9.166667) scale(-1, 1) translate(-36.500000, -9.166667) translate(33.000000, 4.666667)">
                                <polygon id="Rectangle-2" points="4 2.33333333 6.66666667 2.33333333 6.66666667 8.16666667 4 8.16666667"></polygon>
                                <polygon id="Rectangle-2-Copy" points="0.666666667 0 3.33333333 0 3.33333333 6.41011556 0.666666667 5.83333333"></polygon>
                            </g>
                        </g>
                        <polygon id="Path-4" fill="#2A014E" mask="url(#mask-7)" points="3.22291667 11.0480312 3.22291667 6.56527345 6.83072917 4.64713542 7.61171875 5.19175982 4.02994792 7.07715803 4.02994792 11.4515625"></polygon>
                        <polygon id="Path-4-Copy-2" fill="#230240" mask="url(#mask-7)" points="36.7888672 11.0480312 35.9818359 11.4515625 35.9818359 7.07715803 32.4000651 5.19175982 33.1810547 4.64713542 36.7888672 6.56527345"></polygon>
                    </g>
                </g>
                <g id="top">
                    <mask id="mask-10" fill="white">
                        <use xlink:href="#path-9"></use>
                    </mask>
                    <g id="color" fill="black" fill-opacity="1">
                        <use filter="url(#filter-11)" xlink:href="#path-9"></use>
                    </g>
                    <mask id="mask-13" fill="white">
                        <use xlink:href="#path-12"></use>
                    </mask>
                    <use id="color-copy" fill="#4F12A8" xlink:href="#path-12"></use>
                    <polygon id="Path-4-Copy" fill="#000000" mask="url(#mask-13)" points="3.22291667 14.5976888 3.22291667 10.666569 6.83072917 8.98447266 7.9234375 9.95426432 4.30677083 11.4260417 4.30677083 15.2377604"></polygon>
                    <polygon id="Path-4-Copy-3" fill="#000000" mask="url(#mask-13)" transform="translate(34.594466, 11.968018) scale(-1, 1) translate(-34.594466, -11.968018) " points="32.4000651 14.5976888 32.4000651 10.666569 36.0078776 8.98447266 36.7888672 9.46207682 33.2070964 11.1154622 33.2070964 14.9515625"></polygon>
                    <g id="Group-8" mask="url(#mask-13)">
                        <g transform="translate(16.666667, -2.333333)">
                            <rect id="Rectangle-4" fill="url(#linearGradient-14)" x="0" y="0" width="2.66666667" height="4.66666667"></rect>
                            <rect id="Rectangle-4-Copy" fill="url(#linearGradient-14)" x="4" y="0" width="2.66666667" height="4.66666667"></rect>
                            <rect id="Rectangle-4-Copy-2" fill="#230240" x="2.66666667" y="0" width="1.33333333" height="4.66666667"></rect>
                        </g>
                    </g>
                    <g mask="url(#mask-13)">
                        <ellipse id="Oval-2-Copy-2" fill-opacity="0.200000018" fill="#FFFFFF" style="mix-blend-mode: soft-light;" cx="20" cy="7" rx="20" ry="7"></ellipse>
                        <g id="Group-6" transform="translate(0.000000, 7.000000)">
                            <polygon id="Path-3" fill="#CABCA9" points="4.57877604 0.830566406 0.262369792 1.94624837 2.53662109 4.2072347 6.74235026 2.23876953"></polygon>
                            <polygon id="Path-3-Copy" fill="url(#linearGradient-14)" points="7.49365234 2.47247314 3.58154297 4.39735921 6.68505859 5.31280518 10.1512044 3.37467448"></polygon>
                        </g>
                        <g id="Group-6-Copy" transform="translate(34.500000, 10.000000) scale(-1, 1) translate(-34.500000, -10.000000) translate(29.000000, 7.000000)" fill="url(#linearGradient-14)">
                            <polygon id="Path-3" points="4.57877604 0.830566406 0.262369792 1.94624837 2.53662109 4.2072347 6.74235026 2.23876953"></polygon>
                            <polygon id="Path-3-Copy" points="7.49365234 2.47247314 3.58154297 4.39735921 6.68505859 5.31280518 10.1512044 3.37467448"></polygon>
                        </g>
                    </g>
                </g>
                <g id="Group-2" transform="translate(3.000000, 1.000000)">
                    <mask id="mask-16" fill="white">
                        <use xlink:href="#path-15"></use>
                    </mask>
                    <use id="Mask" fill="#3D3939" opacity="0.393455616" xlink:href="#path-15"></use>
                    <g mask="url(#mask-16)">
                        <g transform="translate(1.346154, -1.400000)">
                            <g id="Group-7" transform="translate(12.788462, 12.200000)">
                                <rect id="Rectangle" fill="url(#linearGradient-14)" x="0" y="0" width="2.69230769" height="3.6"></rect>
                                <rect id="Rectangle-Copy" fill="url(#linearGradient-14)" x="4.03846154" y="0" width="2.69230769" height="3.6"></rect>
                            </g>
                            <g id="Group-4-Copy" transform="translate(25.461538, 2.500000) scale(-1, 1) translate(-25.461538, -2.500000) translate(19.961538, -0.000000)">
                                <polygon id="Path-2" fill="url(#linearGradient-14)" points="10.2197266 3.33037109 6.13492526 0.0719726563 4.03846154 0.691601563 8.69412936 3.83398438"></polygon>
                                <polygon id="Path-2-Copy" fill="url(#linearGradient-14)" points="7.66515837 3.72806066 2.22660945 0.28671875 0 0.691601562 5.53154164 4.26676471"></polygon>
                            </g>
                            <g id="Group-4-Copy-2" transform="translate(0.000000, -0.000000)">
                                <polygon id="Path-2" fill="url(#linearGradient-14)" points="10.2197266 3.33037109 6.13492526 0.0719726563 4.03846154 0.691601563 8.69412936 3.83398438"></polygon>
                                <polygon id="Path-2-Copy" fill="url(#linearGradient-14)" points="7.66515837 3.72806066 2.22660945 0.28671875 0 0.691601562 5.53154164 4.26676471"></polygon>
                            </g>
                        </g>
                    </g>
                </g>
                <g id="Group-3" transform="translate(4.000000, 1.000000)">
                    <path d="M16,10.8 C24.836556,10.8 32,8.6509668 32,6 C32,3.3490332 24.836556,1.2 16,1.2 C7.163444,1.2 0,3.3490332 0,6 C0,8.6509668 7.163444,10.8 16,10.8 Z" id="Oval-3" fill="#000000" opacity="0.201370018"></path>
                    <g id="Oval-3-Copy-2">
                        <use fill="black" fill-opacity="1" filter="url(#filter-19)" xlink:href="#path-18"></use>
                        <path stroke="url(#linearGradient-17)" stroke-width="1" d="M16,10.6 C24.5547712,10.6 31.5,8.38620833 31.5,6 C31.5,3.61379167 24.5547712,1.4 16,1.4 C7.44522876,1.4 0.5,3.61379167 0.5,6 C0.5,8.38620833 7.44522876,10.6 16,10.6 Z" stroke-linejoin="square"></path>
                    </g>
                    <path d="M16,9.6 C23.3637967,9.6 29.3333333,7.9882251 29.3333333,6 C29.3333333,4.0117749 23.3637967,2.4 16,2.4 C8.63620334,2.4 2.66666667,4.0117749 2.66666667,6 C2.66666667,7.9882251 8.63620334,9.6 16,9.6 Z" id="Oval-3-Copy" fill="#EDEDED"></path>
                </g>
                <path d="M0.012517337,6.75 C0.388635025,10.500204 9.19340339,13.5 20,13.5 C30.8065966,13.5 39.611365,10.500204 39.9874827,6.75 C39.9958044,6.83297411 40,6.91631556 40,7 C40,10.8659932 31.045695,14 20,14 C8.954305,14 0,10.8659932 0,7 C0,6.91631556 0.00419564835,6.83297411 0.012517337,6.75 Z" id="light" fill="#FFFFFF" opacity="0.468919837"></path>
                <g id="lab">
                    <mask id="mask-21" fill="white">
                        <use xlink:href="#path-20"></use>
                    </mask>
                    <g id="Mask"></g>
                    <polygon id="Mask" stroke="url(#linearGradient-22)" stroke-width="0.5" fill="#E2D5DA" mask="url(#mask-21)" points="-2 4.66666667 42 4.66666667 42 9.33333333 -2 9.33333333"></polygon>
                </g>
            </g>
        </g>
    </g>
</svg>
